<?xml version="1.0" encoding="UTF-8"?>
<svg xmlns="http://www.w3.org/2000/svg" viewBox="0 0 1024 1024">
  <!-- Background rounded square with subtle gradient -->
  <defs>
    <linearGradient id="bg" x1="0" y1="0" x2="1" y2="1">
      <stop offset="0%" stop-color="#2563eb"/>
      <stop offset="100%" stop-color="#1e3a8a"/>
    </linearGradient>
    <linearGradient id="accent" x1="0" y1="0" x2="0" y2="1">
      <stop offset="0%" stop-color="#fde68a"/>
      <stop offset="100%" stop-color="#f59e0b"/>
    </linearGradient>
    <linearGradient id="currency" x1="0" y1="0" x2="0" y2="1">
      <stop offset="0%" stop-color="#10b981"/>
      <stop offset="100%" stop-color="#047857"/>
    </linearGradient>
    <filter id="shadow" x="-10%" y="-10%" width="120%" height="120%" color-interpolation-filters="sRGB">
      <feDropShadow dx="0" dy="12" stdDeviation="24" flood-color="#0f172a" flood-opacity="0.35"/>
    </filter>
  </defs>
  <rect x="96" y="96" width="832" height="832" rx="180" fill="url(#bg)"/>

  <!-- Stylized invoice sheet -->
  <g filter="url(#shadow)">
    <path d="M312 236h400c28 0 52 24 52 52v448c0 18-14 32-32 32h-248l-84 84-84-84h-4c-18 0-32-14-32-32V288c0-28 24-52 52-52z" fill="#ffffff"/>
  </g>

  <!-- Invoice header bars -->
  <rect x="372" y="308" width="280" height="36" rx="8" fill="#e2e8f0"/>
  <rect x="372" y="364" width="200" height="28" rx="6" fill="#cbd5e1"/>

  <!-- Line items (3 lines) -->
  <rect x="344" y="436" width="336" height="22" rx="5" fill="#e2e8f0"/>
  <rect x="344" y="476" width="336" height="22" rx="5" fill="#e2e8f0"/>
  <rect x="344" y="516" width="260" height="22" rx="5" fill="#e2e8f0"/>

  <!-- Accent total bar -->
  <rect x="344" y="584" width="336" height="40" rx="10" fill="url(#accent)"/>

  <!-- Currency / exchange emblem -->
  <circle cx="520" cy="720" r="96" fill="url(#currency)" filter="url(#shadow)"/>
  <path d="M520 648c40 0 72 32 72 72s-32 72-72 72-72-32-72-72" fill="none" stroke="#ecfdf5" stroke-width="20" stroke-linecap="round" stroke-linejoin="round"/>
  <path d="M488 696h72M488 728h56M488 760h72" stroke="#ecfdf5" stroke-width="16" stroke-linecap="round"/>
  <path d="M456 720h-16m160 0h-16" stroke="#ecfdf5" stroke-width="20" stroke-linecap="round"/>

  <!-- Subtle top-right folded corner effect -->
  <path d="M684 236v84c0 8 6 14 14 14h84" fill="#f1f5f9"/>
  <path d="M682 236h2l98 98v2h-84c-8 0-16-8-16-16v-84z" fill="#e2e8f0"/>

  <!-- Title 'INV' letters minimalistic -->
  <g fill="#1e3a8a" opacity="0.85">
    <rect x="360" y="308" width="18" height="36" rx="4"/>
    <path d="M394 308h18l12 36h-18l-12-36z"/>
    <path d="M436 308h18v36h-18z"/>
  </g>
</svg>
